Results
version=1
nRows=4
nColumns=213
inDegrees=yes
endheader
time	platform_rx	platform_ry	platform_rz	platform_ty	pelvis_tilt	pelvis_list	pelvis_rotation	pelvis_tx	pelvis_ty	pelvis_tz	hip_flexion_r	hip_adduction_r	hip_rotation_r	knee_angle_r	knee_angle_r_beta	ankle_angle_r	subtalar_angle_r	mtp_angle_r	hip_flexion_l	hip_adduction_l	hip_rotation_l	knee_angle_l	knee_angle_l_beta	ankle_angle_l	subtalar_angle_l	mtp_angle_l	lumbar_extension	lumbar_bending	lumbar_rotation	arm_flex_r	arm_add_r	arm_rot_r	elbow_flex_r	pro_sup_r	wrist_flex_r	wrist_dev_r	arm_flex_l	arm_add_l	arm_rot_l	elbow_flex_l	pro_sup_l	wrist_flex_l	wrist_dev_l	platform_rx_u	platform_ry_u	platform_rz_u	platform_ty_u	pelvis_tilt_u	pelvis_list_u	pelvis_rotation_u	pelvis_tx_u	pelvis_ty_u	pelvis_tz_u	hip_flexion_r_u	hip_adduction_r_u	hip_rotation_r_u	knee_angle_r_u	knee_angle_r_beta_u	ankle_angle_r_u	subtalar_angle_r_u	mtp_angle_r_u	hip_flexion_l_u	hip_adduction_l_u	hip_rotation_l_u	knee_angle_l_u	knee_angle_l_beta_u	ankle_angle_l_u	subtalar_angle_l_u	mtp_angle_l_u	lumbar_extension_u	lumbar_bending_u	lumbar_rotation_u	arm_flex_r_u	arm_add_r_u	arm_rot_r_u	elbow_flex_r_u	pro_sup_r_u	wrist_flex_r_u	wrist_dev_r_u	arm_flex_l_u	arm_add_l_u	arm_rot_l_u	elbow_flex_l_u	pro_sup_l_u	wrist_flex_l_u	wrist_dev_l_u	addbrev_r.activation	addlong_r.activation	addlong_r.fiber_length	addmagDist_r.activation	addmagIsch_r.activation	addmagIsch_r.fiber_length	addmagMid_r.activation	addmagProx_r.activation	bflh_r.activation	bflh_r.fiber_length	bfsh_r.activation	edl_r.activation	edl_r.fiber_length	ehl_r.activation	ehl_r.fiber_length	fdl_r.activation	fdl_r.fiber_length	fhl_r.activation	fhl_r.fiber_length	gaslat_r.activation	gaslat_r.fiber_length	gasmed_r.activation	gasmed_r.fiber_length	glmax1_r.activation	glmax2_r.activation	glmax3_r.activation	glmed1_r.activation	glmed2_r.activation	glmed3_r.activation	glmin1_r.activation	glmin2_r.activation	glmin3_r.activation	glmin3_r.fiber_length	grac_r.activation	iliacus_r.activation	perbrev_r.activation	perbrev_r.fiber_length	perlong_r.activation	perlong_r.fiber_length	piri_r.activation	piri_r.fiber_length	psoas_r.activation	recfem_r.activation	recfem_r.fiber_length	sart_r.activation	semimem_r.activation	semimem_r.fiber_length	semiten_r.activation	semiten_r.fiber_length	soleus_r.activation	soleus_r.fiber_length	tfl_r.activation	tfl_r.fiber_length	tibant_r.activation	tibant_r.fiber_length	tibpost_r.activation	tibpost_r.fiber_length	vasint_r.activation	vasint_r.fiber_length	vaslat_r.activation	vaslat_r.fiber_length	vasmed_r.activation	vasmed_r.fiber_length	addbrev_l.activation	addlong_l.activation	addlong_l.fiber_length	addmagDist_l.activation	addmagIsch_l.activation	addmagIsch_l.fiber_length	addmagMid_l.activation	addmagProx_l.activation	bflh_l.activation	bflh_l.fiber_length	bfsh_l.activation	edl_l.activation	edl_l.fiber_length	ehl_l.activation	ehl_l.fiber_length	fdl_l.activation	fdl_l.fiber_length	fhl_l.activation	fhl_l.fiber_length	gaslat_l.activation	gaslat_l.fiber_length	gasmed_l.activation	gasmed_l.fiber_length	glmax1_l.activation	glmax2_l.activation	glmax3_l.activation	glmed1_l.activation	glmed2_l.activation	glmed3_l.activation	glmin1_l.activation	glmin2_l.activation	glmin3_l.activation	glmin3_l.fiber_length	grac_l.activation	iliacus_l.activation	perbrev_l.activation	perbrev_l.fiber_length	perlong_l.activation	perlong_l.fiber_length	piri_l.activation	piri_l.fiber_length	psoas_l.activation	recfem_l.activation	recfem_l.fiber_length	sart_l.activation	semimem_l.activation	semimem_l.fiber_length	semiten_l.activation	semiten_l.fiber_length	soleus_l.activation	soleus_l.fiber_length	tfl_l.activation	tfl_l.fiber_length	tibant_l.activation	tibant_l.fiber_length	tibpost_l.activation	tibpost_l.fiber_length	vasint_l.activation	vasint_l.fiber_length	vaslat_l.activation	vaslat_l.fiber_length	vasmed_l.activation	vasmed_l.fiber_length
      0.00266991	     20.00000000	     -0.00000000	      0.00000000	      0.25000000	     -5.31494168	     -0.00107326	     -0.00089946	      0.11899816	      0.90301553	      0.00000390	     23.33380616	     -8.25861133	    -10.00508121	     32.86727967	     32.86727967	     12.17146793	     -0.11517793	     -0.00000000	     23.33289109	     -8.26534355	    -10.00931112	     32.86747284	     32.86747284	     12.19710374	     -0.00000000	      0.00000000	     -0.02547875	      0.00098358	      0.00089257	     31.00445045	     -0.00025475	     89.91849008	      0.08906830	      0.08774320	      0.00000000	      0.00000000	     31.00449368	     -0.00051153	     89.91897045	      0.08917992	      0.08775692	      0.00000000	      0.00000000	      0.00000000	     -0.00000000	      0.00000000	      0.00000000	     15.74591097	     -0.77064503	     -0.64417140	     -0.00118883	      0.01136393	      0.00281919	    -19.68257444	      1.72551094	     -3.84261151	    -15.53119216	    -15.53119216	   -298.76599289	    -83.73262922	     -0.00000000	    -20.33996567	     -3.13624871	     -6.89582674	    -15.39055795	    -15.39055795	   -280.32273338	     -0.00000000	      0.00000000	    -19.02597844	      0.70344766	      0.63937550	      3.31414019	     -0.18032574	     -0.14008619	      0.72854350	     -0.23305281	      0.00000000	      0.00000000	      3.34667213	     -0.37354255	     -0.08080035	      0.81181614	     -0.22281842	     -0.00000000	      0.00000000	      0.01000000	      0.01000000	      0.10446286	      0.01000000	      0.01000000	      0.15089902	      0.01000000	      0.01000000	      0.01000000	      0.09607626	      0.01000000	      0.01000000	      0.06150221	      0.01000000	      0.06996726	      0.01000000	      0.04663688	      0.01000000	      0.05395399	      0.01000000	      0.06912508	      0.01000000	      0.06034517	      0.01000000	      0.01000000	      0.01000000	      0.01000000	      0.01000000	      0.01000000	      0.01000000	      0.01000000	      0.01000000	      0.03727569	      0.01000000	      0.01000000	      0.01000000	      0.04962315	      0.01000000	      0.05568606	      0.01000000	      0.02107769	      0.01000000	      0.01000000	      0.07228870	      0.01000000	      0.01000000	      0.06627531	      0.01000000	      0.21235670	      0.01000000	      0.05476290	      0.01000000	      0.08560250	      0.01000000	      0.05709525	      0.01000000	      0.04068573	      0.01000000	      0.10449185	      0.01000000	      0.10277558	      0.01000000	      0.10226030	      0.01000000	      0.01000000	      0.10446779	      0.01000000	      0.01000000	      0.15090128	      0.01000000	      0.01000000	      0.01000000	      0.09607662	      0.01000000	      0.01000000	      0.06150855	      0.01000000	      0.06995813	      0.01000000	      0.04663276	      0.01000000	      0.05395029	      0.01000000	      0.06912735	      0.01000000	      0.06034880	      0.01000000	      0.01000000	      0.01000000	      0.01000000	      0.01000000	      0.01000000	      0.01000000	      0.01000000	      0.01000000	      0.03727325	      0.01000000	      0.01000000	      0.01000000	      0.04964519	      0.01000000	      0.05569783	      0.01000000	      0.02107645	      0.01000000	      0.01000000	      0.07228842	      0.01000000	      0.01000000	      0.06627558	      0.01000000	      0.21235810	      0.01000000	      0.05476613	      0.01000000	      0.08560133	      0.01000000	      0.05707016	      0.01000000	      0.04068079	      0.01000000	      0.10449191	      0.01000000	      0.10277564	      0.01000000	      0.10226036
      0.00350487	     20.00000000	     -0.00000000	     -0.00000000	      0.25000000	     -5.29974614	     -0.00179983	     -0.00150572	      0.11899712	      0.90302636	      0.00000657	     23.31475438	     -8.25697800	    -10.00879754	     32.85224995	     32.85224995	     11.88661548	     -0.19464440	     -0.00000000	     23.31321926	     -8.26830752	    -10.01591335	     32.85257722	     32.85257722	     11.92966064	     -0.00000000	      0.00000000	     -0.04382454	      0.00164533	      0.00149445	     31.00763885	     -0.00042718	     89.91835462	      0.08976633	      0.08752508	      0.00000000	      0.00000000	     31.00771338	     -0.00086980	     89.91889201	      0.08995803	      0.08754864	      0.00000000	      0.00000000	      0.00000000	     -0.00000000	     -0.00000000	      0.00000000	     20.65140115	     -0.96599016	     -0.80466559	     -0.00127086	      0.01454792	      0.00355802	    -25.96532766	      2.18031163	     -5.06106766	    -20.48372922	    -20.48372922	   -382.73755247	   -106.31556622	     -0.00000000	    -26.78997635	     -3.94904046	     -8.90709062	    -20.30349523	    -20.30349523	   -359.56353824	     -0.00000000	      0.00000000	    -24.91345160	      0.87793896	      0.79902274	      4.32056109	     -0.23236301	     -0.18442032	      0.94224433	     -0.28786335	      0.00000000	      0.00000000	      4.36294618	     -0.48407388	     -0.10717530	      1.05072573	     -0.27452822	     -0.00000000	      0.00000000	      0.01000000	      0.01000000	      0.10447141	      0.01000000	      0.01000000	      0.15088567	      0.01000000	      0.01000000	      0.01000000	      0.09607112	      0.01000000	      0.01000000	      0.06161565	      0.01000000	      0.07012050	      0.01000000	      0.04663511	      0.01000000	      0.05394332	      0.01000000	      0.06902929	      0.01000000	      0.06025858	      0.01000000	      0.01000000	      0.01000000	      0.01000000	      0.01000000	      0.01000000	      0.01000000	      0.01000000	      0.01000000	      0.03727271	      0.01000000	      0.01000000	      0.01000000	      0.04958478	      0.01000000	      0.05565884	      0.01000000	      0.02107565	      0.01000000	      0.01000000	      0.07228977	      0.01000000	      0.01000000	      0.06627309	      0.01000000	      0.21235074	      0.01000000	      0.05466406	      0.01000000	      0.08560697	      0.01000000	      0.05728851	      0.01000000	      0.04068178	      0.01000000	      0.10448524	      0.01000000	      0.10276925	      0.01000000	      0.10225403	      0.01000000	      0.01000000	      0.10448093	      0.01000000	      0.01000000	      0.15089001	      0.01000000	      0.01000000	      0.01000000	      0.09607187	      0.01000000	      0.01000000	      0.06162974	      0.01000000	      0.07010196	      0.01000000	      0.04662629	      0.01000000	      0.05393528	      0.01000000	      0.06903443	      0.01000000	      0.06026704	      0.01000000	      0.01000000	      0.01000000	      0.01000000	      0.01000000	      0.01000000	      0.01000000	      0.01000000	      0.01000000	      0.03726801	      0.01000000	      0.01000000	      0.01000000	      0.04963277	      0.01000000	      0.05568527	      0.01000000	      0.02107307	      0.01000000	      0.01000000	      0.07228919	      0.01000000	      0.01000000	      0.06627365	      0.01000000	      0.21235336	      0.01000000	      0.05467060	      0.01000000	      0.08560450	      0.01000000	      0.05724157	      0.01000000	      0.04067113	      0.01000000	      0.10448537	      0.01000000	      0.10276936	      0.01000000	      0.10225415
      0.00455068	     20.00000000	     -0.00000000	      0.00000000	      0.25000000	     -5.27494064	     -0.00292468	     -0.00244037	      0.11899583	      0.90304355	      0.00001073	     23.28344024	     -8.25442286	    -10.01489505	     32.82753087	     32.82753087	     11.43429313	     -0.31954490	     -0.00000000	     23.28094450	     -8.27291783	    -10.02650446	     32.82807128	     32.82807128	     11.50437268	     -0.00000000	      0.00000000	     -0.07371660	      0.00266449	      0.00242292	     31.01280693	     -0.00070298	     89.91813259	      0.09088727	      0.08719379	      0.00000000	      0.00000000	     31.01293210	     -0.00144637	     89.91876229	      0.09120860	      0.08723329	      0.00000000	      0.00000000	      0.00000000	     -0.00000000	      0.00000000	     -0.00000000	     26.78405502	     -1.17956290	     -0.97771982	     -0.00115733	      0.01827044	      0.00438445	    -33.93860179	      2.69683492	     -6.60252864	    -26.81427339	    -26.81427339	   -481.00531694	   -132.08789475	     -0.00000000	    -34.94621909	     -4.84537455	    -11.32999043	    -26.58750576	    -26.58750576	   -452.60527976	     -0.00000000	      0.00000000	    -32.24343190	      1.06551403	      0.97167294	      5.55862443	     -0.29450199	     -0.24025064	      1.19949480	     -0.34321862	      0.00000000	      0.00000000	      5.61304872	     -0.61765397	     -0.14105845	      1.33876416	     -0.32609417	     -0.00000000	      0.00000000	      0.01000000	      0.01000000	      0.10448676	      0.01000000	      0.01000000	      0.15086187	      0.01000000	      0.01000000	      0.01000000	      0.09606127	      0.01000000	      0.01000000	      0.06182579	      0.01000000	      0.07038806	      0.01000000	      0.04663154	      0.01000000	      0.05392207	      0.01000000	      0.06884402	      0.01000000	      0.06008718	      0.01000000	      0.01000000	      0.01000000	      0.01000000	      0.01000000	      0.01000000	      0.01000000	      0.01000000	      0.01000000	      0.03726732	      0.01000000	      0.01000000	      0.01000000	      0.04951236	      0.01000000	      0.05560181	      0.01000000	      0.02107164	      0.01000000	      0.01000000	      0.07229191	      0.01000000	      0.01000000	      0.06626872	      0.01000000	      0.21234041	      0.01000000	      0.05448848	      0.01000000	      0.08561579	      0.01000000	      0.05761033	      0.01000000	      0.04067397	      0.01000000	      0.10447322	      0.01000000	      0.10275762	      0.01000000	      0.10224273	      0.01000000	      0.01000000	      0.10450422	      0.01000000	      0.01000000	      0.15086979	      0.01000000	      0.01000000	      0.01000000	      0.09606274	      0.01000000	      0.01000000	      0.06185233	      0.01000000	      0.07035473	      0.01000000	      0.04661338	      0.01000000	      0.05390490	      0.01000000	      0.06885404	      0.01000000	      0.06010417	      0.01000000	      0.01000000	      0.01000000	      0.01000000	      0.01000000	      0.01000000	      0.01000000	      0.01000000	      0.01000000	      0.03725874	      0.01000000	      0.01000000	      0.01000000	      0.04960948	      0.01000000	      0.05566038	      0.01000000	      0.02106654	      0.01000000	      0.01000000	      0.07229074	      0.01000000	      0.01000000	      0.06626983	      0.01000000	      0.21234506	      0.01000000	      0.05450043	      0.01000000	      0.08561080	      0.01000000	      0.05752861	      0.01000000	      0.04065165	      0.01000000	      0.10447345	      0.01000000	      0.10275784	      0.01000000	      0.10224295
      0.00559648	     20.00000000	     -0.00000000	      0.00000000	      0.25000000	     -5.24373034	     -0.00425546	     -0.00354039	      0.11899479	      0.90306447	      0.00001570	     23.24372905	     -8.25135581	    -10.02261268	     32.79611029	     32.79611029	     10.88326503	     -0.46996958	     -0.00000000	     23.24009629	     -8.27839525	    -10.03957531	     32.79691039	     32.79691039	     10.98544914	     -0.00000000	      0.00000000	     -0.11124608	      0.00386247	      0.00351676	     31.01925627	     -0.00104197	     89.91785200	      0.09227102	      0.08681256	      0.00000000	      0.00000000	     31.01944449	     -0.00215970	     89.91859663	      0.09275368	      0.08687189	     -0.00000000	      0.00000000	      0.00000000	     -0.00000000	      0.00000000	      0.00000000	     32.89950361	     -1.36009049	     -1.12119223	     -0.00080295	      0.02168348	      0.00510495	    -42.02357114	      3.16033818	     -8.15890490	    -33.30137278	    -33.30137278	   -571.47297152	   -155.13762809	     -0.00000000	    -43.18582168	     -5.60743775	    -13.64997720	    -33.03230573	    -33.03230573	   -538.59859879	     -0.00000000	      0.00000000	    -39.51855869	      1.22019694	      1.11556609	      6.77072920	     -0.35322179	     -0.29639640	      1.44476659	     -0.38324426	      0.00000000	      0.00000000	      6.83681592	     -0.74553722	     -0.17593861	      1.61384244	     -0.36244872	     -0.00000000	      0.00000000	      0.01000000	      0.01000000	      0.10450755	      0.01000000	      0.01000000	      0.15083002	      0.01000000	      0.01000000	      0.01000000	      0.09604726	      0.01000000	      0.01000000	      0.06209873	      0.01000000	      0.07072815	      0.01000000	      0.04662617	      0.01000000	      0.05389033	      0.01000000	      0.06859277	      0.01000000	      0.05985044	      0.01000000	      0.01000000	      0.01000000	      0.01000000	      0.01000000	      0.01000000	      0.01000000	      0.01000000	      0.01000000	      0.03725998	      0.01000000	      0.01000000	      0.01000000	      0.04941608	      0.01000000	      0.05551626	      0.01000000	      0.02106580	      0.01000000	      0.01000000	      0.07229506	      0.01000000	      0.01000000	      0.06626235	      0.01000000	      0.21232691	      0.01000000	      0.05426000	      0.01000000	      0.08562874	      0.01000000	      0.05801270	      0.01000000	      0.04066248	      0.01000000	      0.10445680	      0.01000000	      0.10274166	      0.01000000	      0.10222745	      0.01000000	      0.01000000	      0.10453523	      0.01000000	      0.01000000	      0.15084249	      0.01000000	      0.01000000	      0.01000000	      0.09604971	      0.01000000	      0.01000000	      0.06214077	      0.01000000	      0.07067668	      0.01000000	      0.04659417	      0.01000000	      0.05385862	      0.01000000	      0.06860889	      0.01000000	      0.05987842	      0.01000000	      0.01000000	      0.01000000	      0.01000000	      0.01000000	      0.01000000	      0.01000000	      0.01000000	      0.01000000	      0.03724646	      0.01000000	      0.01000000	      0.01000000	      0.04957702	      0.01000000	      0.05562340	      0.01000000	      0.02105714	      0.01000000	      0.01000000	      0.07229304	      0.01000000	      0.01000000	      0.06626423	      0.01000000	      0.21233409	      0.01000000	      0.05427872	      0.01000000	      0.08562015	      0.01000000	      0.05788854	      0.01000000	      0.04062199	      0.01000000	      0.10445717	      0.01000000	      0.10274201	      0.01000000	      0.10222780
